<svg width="20" height="19" viewBox="0 0 20 19" fill="none" xmlns="http://www.w3.org/2000/svg">
<path d="M13.125 9.5C13.125 8.88193 12.9417 8.27775 12.5983 7.76384C12.255 7.24994 11.7669 6.8494 11.1959 6.61288C10.6249 6.37635 9.99653 6.31447 9.39034 6.43505C8.78415 6.55562 8.22733 6.85325 7.79029 7.29029C7.35325 7.72733 7.05562 8.28415 6.93505 8.89034C6.81447 9.49653 6.87635 10.1249 7.11288 10.6959C7.3494 11.2669 7.74994 11.755 8.26384 12.0983C8.77775 12.4417 9.38193 12.625 10 12.625C10.8285 12.6241 11.6228 12.2945 12.2087 11.7087C12.7945 11.1228 13.1241 10.3285 13.125 9.5ZM8.125 9.5C8.125 9.12916 8.23497 8.76665 8.44099 8.45831C8.64702 8.14996 8.93986 7.90964 9.28247 7.76773C9.62508 7.62581 10.0021 7.58868 10.3658 7.66103C10.7295 7.73337 11.0636 7.91195 11.3258 8.17417C11.588 8.4364 11.7666 8.77049 11.839 9.13421C11.9113 9.49792 11.8742 9.87492 11.7323 10.2175C11.5904 10.5601 11.35 10.853 11.0417 11.059C10.7334 11.265 10.3708 11.375 10 11.375C9.50289 11.3744 9.02631 11.1767 8.6748 10.8252C8.3233 10.4737 8.12557 9.99711 8.125 9.5ZM6.25 15.0464L9.5823 18.875H10.4177L13.75 15.0464V13.875H6.25V15.0464ZM12.0244 15.125L10 17.4509L7.97559 15.125H12.0244ZM9.5823 0.125L6.25 3.95359V5.125H13.75V3.95359L10.4177 0.125H9.5823ZM7.97559 3.875L10 1.54906L12.0244 3.875H7.97559ZM0.625 9.0823V9.9177L4.45363 13.25H5.625V5.75H4.45363L0.625 9.0823ZM4.375 11.5245L2.04902 9.5L4.375 7.47555V11.5245ZM15.5464 5.75H14.375V13.25H15.5464L19.375 9.9177V9.0823L15.5464 5.75ZM15.625 11.5245V7.47555L17.951 9.5L15.625 11.5245Z" fill="url(#paint0_linear_1195_144)"/>
<defs>
<linearGradient id="paint0_linear_1195_144" x1="10" y1="0.125" x2="10" y2="18.875" gradientUnits="userSpaceOnUse">
<stop stop-color="#C7D300"/>
<stop offset="1" stop-color="#76B828"/>
</linearGradient>
</defs>
</svg>
