<svg width="17" height="15" viewBox="0 0 17 15" fill="none" xmlns="http://www.w3.org/2000/svg">
<path d="M1 1.83333C1 1.61232 1.0878 1.40036 1.24408 1.24408C1.40036 1.0878 1.61232 1 1.83333 1H15.1667C15.3877 1 15.5996 1.0878 15.7559 1.24408C15.9122 1.40036 16 1.61232 16 1.83333V3.5C16 3.72101 15.9122 3.93298 15.7559 4.08926C15.5996 4.24554 15.3877 4.33333 15.1667 4.33333H1.83333C1.61232 4.33333 1.40036 4.24554 1.24408 4.08926C1.0878 3.93298 1 3.72101 1 3.5V1.83333ZM5.16667 10.1667C5.16667 11.0507 5.51786 11.8986 6.14298 12.5237C6.7681 13.1488 7.61594 13.5 8.5 13.5C9.38405 13.5 10.2319 13.1488 10.857 12.5237C11.4821 11.8986 11.8333 11.0507 11.8333 10.1667C11.8333 9.28261 11.4821 8.43476 10.857 7.80964C10.2319 7.18452 9.38405 6.83333 8.5 6.83333C7.61594 6.83333 6.7681 7.18452 6.14298 7.80964C5.51786 8.43476 5.16667 9.28261 5.16667 10.1667Z" stroke="url(#paint0_linear_1195_119)" stroke-width="2" stroke-linecap="round" stroke-linejoin="round"/>
<defs>
<linearGradient id="paint0_linear_1195_119" x1="8.5" y1="1" x2="8.5" y2="13.5" gradientUnits="userSpaceOnUse">
<stop stop-color="#C7D300"/>
<stop offset="1" stop-color="#76B828"/>
</linearGradient>
</defs>
</svg>
