<svg width="18" height="17" viewBox="0 0 18 17" fill="none" xmlns="http://www.w3.org/2000/svg">
<path d="M0 11.6667V1.66667C0 1.20833 0.163333 0.816111 0.49 0.49C0.816667 0.163889 1.20889 0.000555556 1.66667 0H13.3333V1.66667H1.66667V11.6667H0ZM7.5 16.6667V15H5C4.54167 15 4.14944 14.8369 3.82333 14.5108C3.49722 14.1847 3.33389 13.7922 3.33333 13.3333V5C3.33333 4.54167 3.49667 4.14944 3.82333 3.82333C4.15 3.49722 4.54222 3.33389 5 3.33333H15.8333C16.2917 3.33333 16.6842 3.49667 17.0108 3.82333C17.3375 4.15 17.5006 4.54222 17.5 5V13.3333C17.5 13.7917 17.3369 14.1842 17.0108 14.5108C16.6847 14.8375 16.2922 15.0006 15.8333 15H13.3333V16.6667H7.5ZM5 13.3333H15.8333V5H5V13.3333Z" fill="url(#paint0_linear_1184_314)"/>
<defs>
<linearGradient id="paint0_linear_1184_314" x1="8.75" y1="0" x2="8.75" y2="16.6667" gradientUnits="userSpaceOnUse">
<stop stop-color="#C7D300"/>
<stop offset="1" stop-color="#76B828"/>
</linearGradient>
</defs>
</svg>
