<svg width="20" height="19" viewBox="0 0 20 19" fill="none" xmlns="http://www.w3.org/2000/svg">
<path d="M1.66675 14.1667V5.83341H3.33341V14.1667H1.66675ZM4.16675 15.8334V7.50008C4.16675 6.58341 4.49314 5.79869 5.14591 5.14591C5.79869 4.49314 6.58341 4.16675 7.50008 4.16675H12.5001C13.4167 4.16675 14.2015 4.49314 14.8542 5.14591C15.507 5.79869 15.8334 6.58341 15.8334 7.50008V15.8334H4.16675ZM16.6667 14.1667V5.83341H18.3334V14.1667H16.6667ZM5.83341 14.1667H9.16675V10.8334H7.50008V9.16675H9.16675V5.83341H7.50008C7.04175 5.83341 6.64953 5.99675 6.32341 6.32341C5.9973 6.65008 5.83397 7.0423 5.83341 7.50008V14.1667ZM10.8334 14.1667H14.1667V7.50008C14.1667 7.04175 14.0037 6.64953 13.6776 6.32341C13.3515 5.9973 12.959 5.83397 12.5001 5.83341H10.8334V9.16675H12.5001V10.8334H10.8334V14.1667Z" fill="url(#paint0_linear_1195_190)"/>
<defs>
<linearGradient id="paint0_linear_1195_190" x1="10.0001" y1="4.16675" x2="10.0001" y2="15.8334" gradientUnits="userSpaceOnUse">
<stop stop-color="#C7D300"/>
<stop offset="1" stop-color="#76B828"/>
</linearGradient>
</defs>
</svg>
