<svg width="20" height="19" viewBox="0 0 20 19" fill="none" xmlns="http://www.w3.org/2000/svg">
<path d="M2.0835 9.49992C2.0835 5.97492 2.0835 4.21242 3.08183 3.04409C3.22405 2.87742 3.37822 2.72325 3.54433 2.58159C4.71266 1.58325 6.47516 1.58325 10.0002 1.58325C13.5252 1.58325 15.2877 1.58325 16.456 2.58159C16.6227 2.72381 16.7768 2.87797 16.9185 3.04409C17.9168 4.21242 17.9168 5.97492 17.9168 9.49992C17.9168 13.0249 17.9168 14.7874 16.9185 15.9558C16.7763 16.1224 16.6221 16.2766 16.456 16.4183C15.2877 17.4166 13.5252 17.4166 10.0002 17.4166C6.47516 17.4166 4.71266 17.4166 3.54433 16.4183C3.37766 16.276 3.2235 16.1219 3.08183 15.9558C2.0835 14.7874 2.0835 13.0249 2.0835 9.49992Z" stroke="url(#paint0_linear_1198_382)" stroke-width="1.5"/>
<path d="M6.77414 9.16503L10.1066 4.67336C10.3675 4.32169 10.8558 4.54003 10.8558 5.00836V8.48503C10.8558 8.76503 11.0475 8.99253 11.2841 8.99253H12.9041C13.2725 8.99253 13.4691 9.50753 13.2258 9.83503L9.89331 14.3267C9.63247 14.6784 9.14414 14.46 9.14414 13.9917V10.515C9.14414 10.235 8.95247 10.0075 8.71581 10.0075H7.09581C6.72831 10.0075 6.53164 9.49253 6.77497 9.16503" stroke="url(#paint1_linear_1198_382)" stroke-width="1.5" stroke-linecap="round" stroke-linejoin="round"/>
<defs>
<linearGradient id="paint0_linear_1198_382" x1="10.0002" y1="1.58325" x2="10.0002" y2="17.4166" gradientUnits="userSpaceOnUse">
<stop stop-color="#C7D300"/>
<stop offset="1" stop-color="#76B828"/>
</linearGradient>
<linearGradient id="paint1_linear_1198_382" x1="10.0004" y1="4.49976" x2="10.0004" y2="14.5003" gradientUnits="userSpaceOnUse">
<stop stop-color="#C7D300"/>
<stop offset="1" stop-color="#76B828"/>
</linearGradient>
</defs>
</svg>
