<svg width="24" height="24" viewBox="0 0 24 24" fill="none" xmlns="http://www.w3.org/2000/svg">
<path d="M12.8667 0C14.1792 0.0035 14.8453 0.0105 15.4205 0.0268333L15.6468 0.035C15.9082 0.0443333 16.166 0.0559999 16.4775 0.0699999C17.7188 0.128333 18.5658 0.324333 19.309 0.6125C20.079 0.908833 20.7277 1.31017 21.3763 1.95767C21.9698 2.54069 22.4289 3.24622 22.7215 4.025C23.0097 4.76817 23.2057 5.61517 23.264 6.85767C23.278 7.168 23.2897 7.42583 23.299 7.68833L23.306 7.91467C23.3235 8.48867 23.3305 9.15483 23.3328 10.4673L23.334 11.3377V12.866C23.3368 13.717 23.3279 14.5679 23.3072 15.4187L23.3002 15.645C23.2908 15.9075 23.2792 16.1653 23.2652 16.4757C23.2068 17.7182 23.0085 18.564 22.7215 19.3083C22.4289 20.0871 21.9698 20.7926 21.3763 21.3757C20.7933 21.9691 20.0878 22.4282 19.309 22.7208C18.5658 23.009 17.7188 23.205 16.4775 23.2633L15.6468 23.2983L15.4205 23.3053C14.8453 23.3217 14.1792 23.3298 12.8667 23.3322L11.9963 23.3333H10.4692C9.6178 23.3363 8.76644 23.3274 7.91533 23.3065L7.689 23.2995C7.41204 23.289 7.13515 23.277 6.85833 23.2633C5.617 23.205 4.77 23.009 4.02566 22.7208C3.2473 22.4281 2.54218 21.969 1.9595 21.3757C1.3656 20.7928 0.906124 20.0872 0.613164 19.3083C0.324997 18.5652 0.128997 17.7182 0.0706635 16.4757L0.0356636 15.645L0.0298304 15.4187C0.00832409 14.568 -0.00139918 13.717 0.000663596 12.866V10.4673C-0.00256561 9.61637 0.00599085 8.7654 0.0263303 7.91467L0.034497 7.68833C0.0438303 7.42583 0.0554969 7.168 0.0694969 6.85767C0.12783 5.61517 0.32383 4.76933 0.611997 4.025C0.90564 3.2459 1.36592 2.54034 1.96066 1.95767C2.54301 1.36447 3.24772 0.905419 4.02566 0.6125C4.77 0.324333 5.61583 0.128333 6.85833 0.0699999C7.16866 0.0559999 7.42766 0.0443333 7.689 0.035L7.91533 0.0279999C8.76606 0.00727149 9.61702 -0.00167381 10.468 0.00116658L12.8667 0ZM11.6673 5.83333C10.1202 5.83333 8.6365 6.44791 7.54254 7.54188C6.44858 8.63584 5.834 10.1196 5.834 11.6667C5.834 13.2138 6.44858 14.6975 7.54254 15.7915C8.6365 16.8854 10.1202 17.5 11.6673 17.5C13.2144 17.5 14.6982 16.8854 15.7921 15.7915C16.8861 14.6975 17.5007 13.2138 17.5007 11.6667C17.5007 10.1196 16.8861 8.63584 15.7921 7.54188C14.6982 6.44791 13.2144 5.83333 11.6673 5.83333ZM11.6673 8.16667C12.127 8.16659 12.5821 8.25704 13.0068 8.43287C13.4314 8.60869 13.8173 8.86643 14.1424 9.19138C14.4674 9.51633 14.7253 9.90213 14.9013 10.3267C15.0772 10.7513 15.1678 11.2065 15.1679 11.6661C15.168 12.1257 15.0775 12.5809 14.9017 13.0055C14.7259 13.4302 14.4682 13.8161 14.1432 14.1411C13.8182 14.4662 13.4325 14.7241 13.0078 14.9C12.5832 15.076 12.1281 15.1666 11.6685 15.1667C10.7402 15.1667 9.85 14.7979 9.19362 14.1415C8.53725 13.4852 8.1685 12.5949 8.1685 11.6667C8.1685 10.7384 8.53725 9.84817 9.19362 9.19179C9.85 8.53541 10.7402 8.16667 11.6685 8.16667M17.7935 4.08333C17.4067 4.08333 17.0358 4.23698 16.7623 4.51047C16.4888 4.78396 16.3352 5.15489 16.3352 5.54167C16.3352 5.92844 16.4888 6.29937 16.7623 6.57286C17.0358 6.84635 17.4067 7 17.7935 7C18.1803 7 18.5512 6.84635 18.8247 6.57286C19.0982 6.29937 19.2518 5.92844 19.2518 5.54167C19.2518 5.15489 19.0982 4.78396 18.8247 4.51047C18.5512 4.23698 18.1803 4.08333 17.7935 4.08333Z" fill="#76B828"/>
</svg>
