<svg width="20" height="19" viewBox="0 0 20 19" fill="none" xmlns="http://www.w3.org/2000/svg">
<path d="M16.6667 6.66671V5.00004H15.0001C14.764 5.00004 14.5662 4.92004 14.4067 4.76004C14.2473 4.60004 14.1673 4.40226 14.1667 4.16671C14.1662 3.93115 14.2462 3.73337 14.4067 3.57337C14.5673 3.41337 14.7651 3.33337 15.0001 3.33337H16.6667C17.1251 3.33337 17.5176 3.49671 17.8442 3.82337C18.1709 4.15004 18.334 4.54226 18.3334 5.00004V6.66671C18.3334 6.90282 18.2534 7.10087 18.0934 7.26087C17.9334 7.42087 17.7356 7.5006 17.5001 7.50004C17.2645 7.49949 17.0667 7.41949 16.9067 7.26004C16.7467 7.1006 16.6667 6.90282 16.6667 6.66671ZM1.66675 6.66671V5.00004C1.66675 4.54171 1.83008 4.14948 2.15675 3.82337C2.48341 3.49726 2.87564 3.33393 3.33341 3.33337H5.00008C5.23619 3.33337 5.43425 3.41337 5.59425 3.57337C5.75425 3.73337 5.83397 3.93115 5.83341 4.16671C5.83286 4.40226 5.75286 4.60032 5.59341 4.76087C5.43397 4.92143 5.23619 5.00115 5.00008 5.00004H3.33341V6.66671C3.33341 6.90282 3.25341 7.10087 3.09341 7.26087C2.93341 7.42087 2.73564 7.5006 2.50008 7.50004C2.26453 7.49949 2.06675 7.41949 1.90675 7.26004C1.74675 7.1006 1.66675 6.90282 1.66675 6.66671ZM16.6667 16.6667H15.0001C14.764 16.6667 14.5662 16.5867 14.4067 16.4267C14.2473 16.2667 14.1673 16.0689 14.1667 15.8334C14.1662 15.5978 14.2462 15.4 14.4067 15.24C14.5673 15.08 14.7651 15 15.0001 15H16.6667V13.3334C16.6667 13.0973 16.7467 12.8995 16.9067 12.74C17.0667 12.5806 17.2645 12.5006 17.5001 12.5C17.7356 12.4995 17.9337 12.5795 18.0942 12.74C18.2548 12.9006 18.3345 13.0984 18.3334 13.3334V15C18.3334 15.4584 18.1704 15.8509 17.8442 16.1775C17.5181 16.5042 17.1256 16.6673 16.6667 16.6667ZM3.33341 16.6667C2.87508 16.6667 2.48286 16.5037 2.15675 16.1775C1.83064 15.8514 1.6673 15.4589 1.66675 15V13.3334C1.66675 13.0973 1.74675 12.8995 1.90675 12.74C2.06675 12.5806 2.26453 12.5006 2.50008 12.5C2.73564 12.4995 2.93369 12.5795 3.09425 12.74C3.2548 12.9006 3.33453 13.0984 3.33341 13.3334V15H5.00008C5.23619 15 5.43425 15.08 5.59425 15.24C5.75425 15.4 5.83397 15.5978 5.83341 15.8334C5.83286 16.0689 5.75286 16.267 5.59341 16.4275C5.43397 16.5881 5.23619 16.6678 5.00008 16.6667H3.33341ZM5.00008 11.6667V8.33337C5.00008 7.87504 5.16341 7.48282 5.49008 7.15671C5.81675 6.8306 6.20897 6.66726 6.66675 6.66671H13.3334C13.7917 6.66671 14.1842 6.83004 14.5109 7.15671C14.8376 7.48337 15.0006 7.8756 15.0001 8.33337V11.6667C15.0001 12.125 14.837 12.5175 14.5109 12.8442C14.1848 13.1709 13.7923 13.3339 13.3334 13.3334H6.66675C6.20841 13.3334 5.81619 13.1703 5.49008 12.8442C5.16397 12.5181 5.00064 12.1256 5.00008 11.6667Z" fill="url(#paint0_linear_1195_169)"/>
<defs>
<linearGradient id="paint0_linear_1195_169" x1="10.0001" y1="3.33337" x2="10.0001" y2="16.6667" gradientUnits="userSpaceOnUse">
<stop stop-color="#C7D300"/>
<stop offset="1" stop-color="#76B828"/>
</linearGradient>
</defs>
</svg>
