<svg width="20" height="17" viewBox="0 0 20 17" fill="none" xmlns="http://www.w3.org/2000/svg">
<path d="M1.66667 3.33333H0V7.5H0.00833333L0 15C0 15.9167 0.75 16.6667 1.66667 16.6667H16.6667V15H1.66667V3.33333ZM18.3333 1.66667H11.6667L10 0H5C4.08333 0 3.34167 0.75 3.34167 1.66667L3.33333 11.6667C3.33333 12.5833 4.08333 13.3333 5 13.3333H18.3333C19.25 13.3333 20 12.5833 20 11.6667V3.33333C20 2.41667 19.25 1.66667 18.3333 1.66667ZM5.83333 10.8333L9.58333 5.83333L12.5 9.59167L14.5833 7.08333L17.5 10.8333H5.83333Z" fill="url(#paint0_linear_1178_263)"/>
<defs>
<linearGradient id="paint0_linear_1178_263" x1="10" y1="0" x2="10" y2="16.6667" gradientUnits="userSpaceOnUse">
<stop stop-color="#C7D300"/>
<stop offset="1" stop-color="#76B828"/>
</linearGradient>
</defs>
</svg>
