<svg width="20" height="19" viewBox="0 0 20 19" fill="none" xmlns="http://www.w3.org/2000/svg">
<path d="M8.83183 1.67507L16.3318 3.34174C16.4262 3.36061 16.5112 3.41161 16.5723 3.48605C16.6334 3.56049 16.6668 3.65379 16.6668 3.75007V16.2501C16.6668 16.3464 16.6334 16.4397 16.5723 16.5141C16.5112 16.5885 16.4262 16.6395 16.3318 16.6584L8.83183 18.3251C8.7714 18.3372 8.70905 18.3357 8.64926 18.3208C8.58948 18.3058 8.53374 18.2778 8.48608 18.2388C8.43842 18.1997 8.40001 18.1506 8.37362 18.0949C8.34724 18.0392 8.33353 17.9784 8.3335 17.9167V2.08341C8.33353 2.02179 8.34724 1.96094 8.37362 1.90525C8.40001 1.84957 8.43842 1.80042 8.48608 1.76137C8.53374 1.72231 8.58948 1.69432 8.64926 1.67939C8.70905 1.66447 8.7714 1.663 8.83183 1.67507ZM7.50016 3.33341V16.6667H3.9585C3.80746 16.6667 3.66154 16.612 3.54772 16.5128C3.4339 16.4135 3.35987 16.2764 3.33933 16.1267L3.3335 16.0417V3.95841C3.3335 3.80738 3.3882 3.66146 3.48747 3.54763C3.58674 3.43381 3.72387 3.35978 3.8735 3.33924L3.9585 3.33341H7.50016ZM10.8335 9.16674C10.6125 9.16674 10.4005 9.25454 10.2442 9.41082C10.088 9.5671 10.0002 9.77906 10.0002 10.0001C10.0002 10.2211 10.088 10.433 10.2442 10.5893C10.4005 10.7456 10.6125 10.8334 10.8335 10.8334C11.0545 10.8334 11.2665 10.7456 11.4228 10.5893C11.579 10.433 11.6668 10.2211 11.6668 10.0001C11.6668 9.77906 11.579 9.5671 11.4228 9.41082C11.2665 9.25454 11.0545 9.16674 10.8335 9.16674Z" fill="url(#paint0_linear_1178_296)"/>
<defs>
<linearGradient id="paint0_linear_1178_296" x1="10.0002" y1="1.66699" x2="10.0002" y2="18.3332" gradientUnits="userSpaceOnUse">
<stop stop-color="#C7D300"/>
<stop offset="1" stop-color="#76B828"/>
</linearGradient>
</defs>
</svg>
