<svg width="15" height="15" viewBox="0 0 15 15" fill="none" xmlns="http://www.w3.org/2000/svg">
<path d="M10.8333 5H8.33333V9.58333C8.33333 10.1359 8.11384 10.6658 7.72314 11.0565C7.33244 11.4472 6.80253 11.6667 6.25 11.6667C5.69747 11.6667 5.16756 11.4472 4.77686 11.0565C4.38616 10.6658 4.16667 10.1359 4.16667 9.58333C4.16667 9.0308 4.38616 8.50089 4.77686 8.11019C5.16756 7.71949 5.69747 7.5 6.25 7.5C6.725 7.5 7.15 7.65833 7.5 7.91667V3.33333H10.8333V5ZM13.3333 0C13.7754 0 14.1993 0.175595 14.5118 0.488155C14.8244 0.800716 15 1.22464 15 1.66667V13.3333C15 13.7754 14.8244 14.1993 14.5118 14.5118C14.1993 14.8244 13.7754 15 13.3333 15H1.66667C1.22464 15 0.800716 14.8244 0.488155 14.5118C0.175595 14.1993 0 13.7754 0 13.3333V1.66667C0 1.22464 0.175595 0.800716 0.488155 0.488155C0.800716 0.175595 1.22464 0 1.66667 0H13.3333ZM1.66667 1.66667V13.3333H13.3333V1.66667H1.66667Z" fill="url(#paint0_linear_1178_280)"/>
<defs>
<linearGradient id="paint0_linear_1178_280" x1="7.5" y1="0" x2="7.5" y2="15" gradientUnits="userSpaceOnUse">
<stop stop-color="#C7D300"/>
<stop offset="1" stop-color="#76B828"/>
</linearGradient>
</defs>
</svg>
