<svg width="17" height="16" viewBox="0 0 17 16" fill="none" xmlns="http://www.w3.org/2000/svg">
<path d="M14.1667 4.16667C14.6087 4.16667 15.0326 4.34226 15.3452 4.65482C15.6577 4.96738 15.8333 5.39131 15.8333 5.83333V11.4667C16.3417 11.925 16.6667 12.5917 16.6667 13.3333C16.6667 14.7167 15.55 15.8333 14.1667 15.8333C12.7833 15.8333 11.6667 14.7167 11.6667 13.3333C11.6667 12.5917 11.9917 11.925 12.5 11.4667V5.83333C12.5 4.91667 13.25 4.16667 14.1667 4.16667ZM14.1667 5C13.7083 5 13.3333 5.375 13.3333 5.83333V6.66667H15V5.83333C15 5.375 14.625 5 14.1667 5ZM8.33333 2.24167L4.16667 5.99167V12.5H10.0833L10 13.3333L10.0833 14.1667H2.5V7.5H0L8.33333 0L12 3.3C11.575 3.66667 11.25 4.14167 11.0417 4.675L8.33333 2.24167Z" fill="url(#paint0_linear_1198_323)"/>
<defs>
<linearGradient id="paint0_linear_1198_323" x1="8.33333" y1="0" x2="8.33333" y2="15.8333" gradientUnits="userSpaceOnUse">
<stop stop-color="#C7D300"/>
<stop offset="1" stop-color="#76B828"/>
</linearGradient>
</defs>
</svg>
