<svg width="15" height="16" viewBox="0 0 15 16" fill="none" xmlns="http://www.w3.org/2000/svg">
<path d="M3.95833 7.0815C4.2346 7.0815 4.49955 7.19125 4.6949 7.3866C4.89025 7.58195 5 7.8469 5 8.12317C5 8.39944 4.89025 8.66439 4.6949 8.85974C4.49955 9.05509 4.2346 9.16483 3.95833 9.16483C3.68207 9.16483 3.41711 9.05509 3.22176 8.85974C3.02641 8.66439 2.91667 8.39944 2.91667 8.12317C2.91667 7.8469 3.02641 7.58195 3.22176 7.3866C3.41711 7.19125 3.68207 7.0815 3.95833 7.0815ZM7.5 7.0815C7.77627 7.0815 8.04122 7.19125 8.23657 7.3866C8.43192 7.58195 8.54167 7.8469 8.54167 8.12317C8.54167 8.39944 8.43192 8.66439 8.23657 8.85974C8.04122 9.05509 7.77627 9.16483 7.5 9.16483C7.22373 9.16483 6.95878 9.05509 6.76343 8.85974C6.56808 8.66439 6.45833 8.39944 6.45833 8.12317C6.45833 7.8469 6.56808 7.58195 6.76343 7.3866C6.95878 7.19125 7.22373 7.0815 7.5 7.0815ZM12.0833 8.12317C12.0833 7.8469 11.9736 7.58195 11.7782 7.3866C11.5829 7.19125 11.3179 7.0815 11.0417 7.0815C10.7654 7.0815 10.5004 7.19125 10.3051 7.3866C10.1097 7.58195 10 7.8469 10 8.12317C10 8.39944 10.1097 8.66439 10.3051 8.85974C10.5004 9.05509 10.7654 9.16483 11.0417 9.16483C11.3179 9.16483 11.5829 9.05509 11.7782 8.85974C11.9736 8.66439 12.0833 8.39944 12.0833 8.12317ZM5 11.4565C5 11.1802 4.89025 10.9153 4.6949 10.7199C4.49955 10.5246 4.2346 10.4148 3.95833 10.4148C3.68207 10.4148 3.41711 10.5246 3.22176 10.7199C3.02641 10.9153 2.91667 11.1802 2.91667 11.4565C2.91667 11.7328 3.02641 11.9977 3.22176 12.1931C3.41711 12.3884 3.68207 12.4982 3.95833 12.4982C4.2346 12.4982 4.49955 12.3884 4.6949 12.1931C4.89025 11.9977 5 11.7328 5 11.4565ZM8.54167 11.4565C8.54167 11.1802 8.43192 10.9153 8.23657 10.7199C8.04122 10.5246 7.77627 10.4148 7.5 10.4148C7.22373 10.4148 6.95878 10.5246 6.76343 10.7199C6.56808 10.9153 6.45833 11.1802 6.45833 11.4565C6.45833 11.7328 6.56808 11.9977 6.76343 12.1931C6.95878 12.3884 7.22373 12.4982 7.5 12.4982C7.77627 12.4982 8.04122 12.3884 8.23657 12.1931C8.43192 11.9977 8.54167 11.7328 8.54167 11.4565ZM11.0417 10.4148C11.3179 10.4148 11.5829 10.5246 11.7782 10.7199C11.9736 10.9153 12.0833 11.1802 12.0833 11.4565C12.0833 11.7328 11.9736 11.9977 11.7782 12.1931C11.5829 12.3884 11.3179 12.4982 11.0417 12.4982C10.7654 12.4982 10.5004 12.3884 10.3051 12.1931C10.1097 11.9977 10 11.7328 10 11.4565C10 11.1802 10.1097 10.9153 10.3051 10.7199C10.5004 10.5246 10.7654 10.4148 11.0417 10.4148ZM6.28083 0.443167C6.61896 0.157295 7.04734 0.000305492 7.49011 4.45386e-07C7.93289 -0.000304601 8.36148 0.156095 8.7 0.441501L14.3333 5.18983C14.7558 5.54567 15 6.07067 15 6.62317V14.3723C15.0001 14.5639 14.9625 14.7536 14.8892 14.9307C14.816 15.1077 14.7086 15.2686 14.5732 15.4041C14.4377 15.5396 14.2769 15.6471 14.0999 15.7204C13.923 15.7938 13.7332 15.8315 13.5417 15.8315H1.45833C1.07156 15.8315 0.700627 15.6779 0.427136 15.4044C0.153645 15.1309 0 14.7599 0 14.3732V6.62317C0 6.0715 0.243333 5.54817 0.664167 5.1915L6.28083 0.443167ZM7.89417 1.39733C7.78137 1.30205 7.63849 1.24977 7.49083 1.24977C7.34318 1.24977 7.20029 1.30205 7.0875 1.39733L1.47083 6.14567C1.40153 6.20442 1.34587 6.27758 1.30773 6.36005C1.26959 6.44252 1.24989 6.53231 1.25 6.62317V14.3732C1.25 14.4882 1.34333 14.5815 1.45833 14.5815H13.5417C13.5969 14.5815 13.6499 14.5596 13.689 14.5205C13.7281 14.4814 13.75 14.4284 13.75 14.3732V6.62317C13.7499 6.53218 13.7299 6.44231 13.6915 6.35983C13.6531 6.27735 13.5971 6.20427 13.5275 6.14567L7.89417 1.39733Z" fill="url(#paint0_linear_1198_408)"/>
<defs>
<linearGradient id="paint0_linear_1198_408" x1="7.5" y1="0" x2="7.5" y2="15.8315" gradientUnits="userSpaceOnUse">
<stop stop-color="#C7D300"/>
<stop offset="1" stop-color="#76B828"/>
</linearGradient>
</defs>
</svg>
