<svg width="20" height="19" viewBox="0 0 20 19" fill="none" xmlns="http://www.w3.org/2000/svg">
<path d="M3.33317 15.3333V3.66667C3.33317 3.20833 3.49651 2.81611 3.82317 2.49C4.14984 2.16389 4.54206 2.00056 4.99984 2H14.9998C15.4582 2 15.8507 2.16333 16.1773 2.49C16.504 2.81667 16.6671 3.20889 16.6665 3.66667V15.3333H17.4998C17.736 15.3333 17.934 15.4133 18.094 15.5733C18.254 15.7333 18.3337 15.9311 18.3332 16.1667C18.3326 16.4022 18.2526 16.6003 18.0932 16.7608C17.9337 16.9214 17.736 17.0011 17.4998 17H2.49984C2.26373 17 2.06595 16.92 1.90651 16.76C1.74706 16.6 1.66706 16.4022 1.66651 16.1667C1.66595 15.9311 1.74595 15.7333 1.90651 15.5733C2.06706 15.4133 2.26484 15.3333 2.49984 15.3333H3.33317ZM4.99984 15.3333H7.49984V3.66667H4.99984V15.3333ZM9.16651 15.3333H10.8332V3.66667H9.16651V15.3333ZM12.4998 15.3333H14.9998V3.66667H12.4998V15.3333Z" fill="url(#paint0_linear_1198_337)"/>
<defs>
<linearGradient id="paint0_linear_1198_337" x1="9.99984" y1="2" x2="9.99984" y2="17" gradientUnits="userSpaceOnUse">
<stop stop-color="#C7D300"/>
<stop offset="1" stop-color="#76B828"/>
</linearGradient>
</defs>
</svg>
