<svg width="19" height="19" viewBox="0 0 19 19" fill="none" xmlns="http://www.w3.org/2000/svg">
<path d="M9.06242 7.5C9.34969 7.5 9.63414 7.44342 9.89954 7.33349C10.1649 7.22355 10.4061 7.06242 10.6092 6.8593C10.8123 6.65617 10.9735 6.41502 11.0834 6.14962C11.1933 5.88422 11.2499 5.59977 11.2499 5.3125C11.2499 5.02523 11.1933 4.74078 11.0834 4.47538C10.9735 4.20998 10.8123 3.96883 10.6092 3.7657C10.4061 3.56258 10.1649 3.40145 9.89954 3.29151C9.63414 3.18158 9.34969 3.125 9.06242 3.125C8.48226 3.125 7.92586 3.35547 7.51563 3.7657C7.10539 4.17594 6.87492 4.73234 6.87492 5.3125C6.87492 5.89266 7.10539 6.44906 7.51563 6.8593C7.92586 7.26953 8.48226 7.5 9.06242 7.5ZM6.87492 9.6875C6.87492 9.2731 7.03954 8.87567 7.33257 8.58265C7.62559 8.28962 8.02302 8.125 8.43742 8.125H13.4374C13.8518 8.125 14.2493 8.28962 14.5423 8.58265C14.8353 8.87567 14.9999 9.2731 14.9999 9.6875V12.8125C14.9999 13.0177 14.9595 13.2209 14.881 13.4104C14.8025 13.6 14.6874 13.7723 14.5423 13.9174C14.3972 14.0624 14.2249 14.1775 14.0354 14.2561C13.8458 14.3346 13.6426 14.375 13.4374 14.375H8.43742C8.23223 14.375 8.02905 14.3346 7.83948 14.2561C7.64991 14.1775 7.47766 14.0624 7.33257 13.9174C7.18748 13.7723 7.07238 13.6 6.99386 13.4104C6.91534 13.2209 6.87492 13.0177 6.87492 12.8125V9.6875ZM3.7793 8.66437V13.8681C3.77938 13.9608 3.80691 14.0513 3.85843 14.1283C3.90994 14.2053 3.98312 14.2654 4.06872 14.3008C4.15432 14.3362 4.24851 14.3455 4.33938 14.3275C4.43026 14.3094 4.51374 14.2648 4.5793 14.1994L6.12242 12.6569C6.21035 12.5691 6.25981 12.4499 6.25992 12.3256V10.195C6.25987 10.1332 6.24758 10.072 6.22377 10.0149C6.19995 9.95782 6.16509 9.90603 6.12117 9.8625L4.57805 8.33125C4.51232 8.26609 4.42877 8.22185 4.33793 8.2041C4.24709 8.18636 4.15304 8.1959 4.06761 8.23152C3.98219 8.26715 3.90923 8.32727 3.85792 8.4043C3.80661 8.48133 3.77925 8.57182 3.7793 8.66437ZM14.9999 5.9375C14.9999 6.3519 14.8353 6.74933 14.5423 7.04235C14.2493 7.33538 13.8518 7.5 13.4374 7.5C13.023 7.5 12.6256 7.33538 12.3326 7.04235C12.0395 6.74933 11.8749 6.3519 11.8749 5.9375C11.8749 5.5231 12.0395 5.12567 12.3326 4.83265C12.6256 4.53962 13.023 4.375 13.4374 4.375C13.8518 4.375 14.2493 4.53962 14.5423 4.83265C14.8353 5.12567 14.9999 5.5231 14.9999 5.9375Z" fill="url(#paint0_linear_1146_222)"/>
<path d="M3.125 0C2.71462 0 2.30826 0.0808305 1.92911 0.237876C1.54997 0.394922 1.20547 0.625108 0.915291 0.915291C0.32924 1.50134 0 2.2962 0 3.125V15.625C0 16.4538 0.32924 17.2487 0.915291 17.8347C1.20547 18.1249 1.54997 18.3551 1.92911 18.5121C2.30826 18.6692 2.71462 18.75 3.125 18.75H15.625C16.4538 18.75 17.2487 18.4208 17.8347 17.8347C18.4208 17.2487 18.75 16.4538 18.75 15.625V3.125C18.75 2.71462 18.6692 2.30826 18.5121 1.92911C18.3551 1.54997 18.1249 1.20547 17.8347 0.915291C17.5445 0.625108 17.2 0.394922 16.8209 0.237876C16.4417 0.0808305 16.0354 0 15.625 0H3.125ZM1.25 3.125C1.25 2.62772 1.44754 2.15081 1.79917 1.79917C2.15081 1.44754 2.62772 1.25 3.125 1.25H15.625C16.1223 1.25 16.5992 1.44754 16.9508 1.79917C17.3025 2.15081 17.5 2.62772 17.5 3.125V15.625C17.5 16.1223 17.3025 16.5992 16.9508 16.9508C16.5992 17.3025 16.1223 17.5 15.625 17.5H3.125C2.62772 17.5 2.15081 17.3025 1.79917 16.9508C1.44754 16.5992 1.25 16.1223 1.25 15.625V3.125Z" fill="url(#paint1_linear_1146_222)"/>
<defs>
<linearGradient id="paint0_linear_1146_222" x1="9.38961" y1="3.125" x2="9.38961" y2="14.375" gradientUnits="userSpaceOnUse">
<stop stop-color="#76B828"/>
<stop offset="1" stop-color="#C7D300"/>
</linearGradient>
<linearGradient id="paint1_linear_1146_222" x1="9.375" y1="0" x2="9.375" y2="18.75" gradientUnits="userSpaceOnUse">
<stop stop-color="#76B828"/>
<stop offset="1" stop-color="#C7D300"/>
</linearGradient>
</defs>
</svg>
